<svg version="1.1" xmlns="http://www.w3.org/2000/svg" xmlns:xlink="http://www.w3.org/1999/xlink" width="84.000000pt" height="84.000000pt" viewBox="0,0,256,256"><g fill="#f4298a" fill-rule="nonzero" stroke="none" stroke-width="1" stroke-linecap="butt" stroke-linejoin="miter" stroke-miterlimit="10" stroke-dasharray="" stroke-dashoffset="0" font-family="none" font-weight="none" font-size="none" text-anchor="none" style="mix-blend-mode: normal"><g transform="translate(-1.90225,-1.52394) scale(3.04762,3.04762)"><g transform="translate(0,84) scale(0.1,-0.1)"><path d="M360,769c-72,-29 -136,-149 -79,-149c56,0 149,90 149,145c0,17 -31,19 -70,4z"></path><path d="M461,728c-13,-40 -12,-43 13,-65c26,-22 91,-41 103,-30c13,13 -11,63 -46,99c-21,21 -43,38 -48,38c-6,0 -16,-19 -22,-42z"></path><path d="M374,618c-24,-17 -58,-32 -85,-35c-74,-9 -103,-55 -57,-87c19,-13 25,-14 43,-2c18,12 24,11 44,-5c63,-51 149,-46 215,12c21,18 37,26 41,19c9,-14 48,-13 63,2c16,16 15,55 0,65c-7,4 -40,8 -74,8c-49,0 -69,6 -102,28c-23,15 -43,27 -44,26c-2,0 -21,-14 -44,-31z"></path><path d="M507,434c-15,-16 -86,-23 -132,-14c-46,10 -58,8 -120,-18c-58,-24 -71,-33 -73,-54c-5,-41 20,-53 68,-34c22,9 42,16 44,16c2,0 -4,-31 -14,-70c-18,-68 -18,-70 1,-70c16,0 19,-8 19,-54c0,-36 5,-60 16,-70c18,-19 20,-19 45,-6c15,9 19,22 19,70v60h40h40v-60c0,-48 4,-61 19,-70c25,-13 27,-13 45,6c11,10 16,34 16,70c0,46 3,54 19,54c19,0 19,1 0,72c-10,40 -17,73 -16,75c2,1 23,-5 49,-15c38,-13 49,-14 62,-3c34,29 19,51 -60,87c-84,38 -78,36 -87,28z"></path></g></g></g></svg>