<svg version="1.1" xmlns="http://www.w3.org/2000/svg" xmlns:xlink="http://www.w3.org/1999/xlink" width="684.000000pt" height="692.000000pt" viewBox="0,0,253.03751,256"><g fill="#f4298a" fill-rule="nonzero" stroke="none" stroke-width="1" stroke-linecap="butt" stroke-linejoin="miter" stroke-miterlimit="10" stroke-dasharray="" stroke-dashoffset="0" font-family="none" font-weight="none" font-size="none" text-anchor="none" style="mix-blend-mode: normal"><g transform="translate(13.32192,-2.18004) scale(0.36994,0.36994)"><g transform="translate(0,692) scale(0.1,-0.1)"><path d="M3294,6072c-106,-77 -246,-276 -377,-539l-36,-71l-53,-7c-351,-44 -625,-134 -911,-297c-601,-344 -1023,-924 -1157,-1591c-83,-413 -57,-862 71,-1235c127,-367 302,-646 583,-928c254,-255 515,-425 843,-550c869,-329 1863,-105 2505,565c387,403 621,935 643,1461c4,93 4,93 -6,30c-54,-362 -113,-558 -245,-822c-254,-506 -730,-921 -1272,-1109c-589,-204 -1218,-160 -1758,121c-233,121 -392,239 -574,426c-230,236 -363,441 -486,746c-226,562 -200,1207 71,1763c109,224 223,388 393,566c179,189 374,330 627,455c214,106 438,173 700,209c66,9 127,21 136,26c10,5 58,87 107,183c82,160 186,328 246,400l24,29l51,-48c62,-58 131,-160 178,-265c21,-46 44,-82 56,-88c12,-6 81,-14 152,-17c290,-13 513,-75 695,-193c35,-23 73,-42 83,-42c11,0 49,20 86,44c112,74 207,115 313,135l47,8l11,-51c18,-83 23,-263 11,-381c-25,-233 -118,-552 -222,-757c-103,-205 -281,-373 -480,-454c-120,-49 -204,-65 -334,-65c-190,0 -355,44 -511,137c-58,33 -58,33 -24,4c78,-66 284,-151 425,-175c69,-12 257,-7 331,9c258,55 497,223 638,450c134,214 264,588 296,846c23,188 4,487 -35,546c-20,30 -61,35 -168,19c-105,-16 -191,-45 -306,-105l-79,-41l-88,51c-49,28 -124,64 -167,81c-137,52 -368,99 -495,99c-31,0 -62,4 -68,8c-6,4 -28,41 -49,82c-76,153 -196,288 -297,335c-67,31 -77,31 -124,-3z"></path><path d="M3330,4578c0,-6 19,-30 43,-53c66,-67 162,-83 247,-43c43,20 44,21 20,28c-14,5 -42,8 -64,9c-47,1 -140,25 -201,51c-27,12 -45,15 -45,8z"></path><path d="M4246,4349c49,-83 177,-121 269,-80c26,12 46,24 42,27c-3,3 -41,10 -84,15c-67,9 -149,32 -227,65c-20,8 -20,7 0,-27z"></path></g></g></g></svg>